<svg xmlns="http://www.w3.org/2000/svg" xmlns:xlink="http://www.w3.org/1999/xlink"><symbol id="detective-mobile" viewBox="0 0 30 30"><g fill="none">
<path d="M15 9.44336C14.6766 9.44336 14.4141 9.7501 14.4141 10.1286C14.4141 10.5068 14.6766 10.8138 15 10.8138C15.3234 10.8138 15.5859 10.5068 15.5859 10.1286C15.5859 9.7501 15.3234 9.44336 15 9.44336Z" fill="#00B2FF"/>
<path d="M28.2422 13.5548H25.9623C24.7604 9.54141 23.0166 2.50427 19.8576 0.512584C18.2776 -0.482321 16.7841 0.212534 16.2225 1.62419C15.9835 2.22429 15.5063 2.53987 15 2.53987C14.4868 2.53987 14.0135 2.21733 13.7775 1.62473C13.2358 0.261248 11.778 -0.49731 10.2534 0.368046C7.04384 2.19083 5.24895 9.51116 4.0377 13.5548H1.75781C0.786667 13.5548 0 14.4744 0 15.6104C0 16.7437 0.788498 17.6661 1.75781 17.6661H28.2422C29.2133 17.6661 30 16.7461 30 15.6104C30 14.4769 29.2115 13.5548 28.2422 13.5548ZM6.09604 10.8139H12.6562C12.9799 10.8139 13.2422 10.5069 13.2422 10.1287C13.2422 9.75019 12.9799 9.44344 12.6562 9.44344H6.50574C8.27202 3.73766 9.92203 2.07975 10.7652 1.6009C11.6851 1.07896 12.4422 1.51579 12.7151 2.20261C13.1449 3.28237 14.0341 3.9103 15 3.9103C15.9682 3.9103 16.8562 3.27996 17.2849 2.20261C17.5658 1.49625 18.3268 1.10519 19.3016 1.71894C20.1487 2.2532 21.7937 3.96625 23.494 9.44344H17.3438C17.0201 9.44344 16.7578 9.75019 16.7578 10.1287C16.7578 10.5071 17.0201 10.8139 17.3438 10.8139H23.9042C24.2004 11.8128 24.508 12.8436 24.7208 13.5548H5.27939C5.49156 12.8454 5.79849 11.8171 6.09604 10.8139ZM28.2422 16.2956H1.75781C1.43463 16.2956 1.17188 15.9881 1.17188 15.6104C1.17188 15.2319 1.43417 14.9252 1.75781 14.9252H28.2422C28.5654 14.9252 28.8281 15.2325 28.8281 15.6104C28.8281 15.9886 28.5656 16.2956 28.2422 16.2956Z" fill="#00B2FF"/>
<path d="M13.8281 20.4069H4.45312C4.12949 20.4069 3.86719 20.7136 3.86719 21.0921V23.833C3.86719 27.2334 6.23291 29.9999 9.14062 29.9999C11.3438 29.9999 13.2939 28.4151 14.0696 26.0276C14.6587 25.7133 15.3413 25.7133 15.9304 26.0276C16.7061 28.4151 18.6562 29.9997 20.8594 29.9997C23.7671 29.9997 26.1328 27.2334 26.1328 23.8327V21.0918C26.1328 20.7134 25.8705 20.4066 25.5469 20.4066H16.1719C15.8482 20.4066 15.5859 20.7134 15.5859 21.0918V21.7771H14.4141V21.0918C14.4141 20.7136 14.1518 20.4069 13.8281 20.4069ZM9.14062 28.6295C6.87904 28.6295 5.03906 26.4778 5.03906 23.833V21.7773H13.2422V23.833C13.2422 26.4847 11.412 28.6295 9.14062 28.6295ZM16.7578 21.7773H24.9609V23.833C24.9609 26.4778 23.121 28.6295 20.8594 28.6295C18.5822 28.6295 16.7578 26.4783 16.7578 23.833V21.7773ZM15.5859 23.1478V23.833C15.5859 24.0519 15.5967 24.2701 15.6161 24.4866C15.209 24.3996 14.791 24.3996 14.3838 24.4866C14.4033 24.2701 14.4141 24.0519 14.4141 23.833V23.1478H15.5859Z" fill="#00B2FF"/>
<path d="M9.14062 25.8886C8.17131 25.8886 7.38281 24.9662 7.38281 23.8329C7.38281 23.4544 7.12051 23.1477 6.79688 23.1477C6.47324 23.1477 6.21094 23.4544 6.21094 23.8329C6.21094 25.7218 7.52518 27.259 9.14062 27.259C9.46426 27.259 9.72656 26.952 9.72656 26.5738C9.72656 26.1953 9.46426 25.8886 9.14062 25.8886Z" fill="#00B2FF"/>
<path d="M20.8594 27.259C22.4748 27.259 23.7891 25.7218 23.7891 23.8329C23.7891 23.4544 23.5268 23.1477 23.2031 23.1477C22.8795 23.1477 22.6172 23.4544 22.6172 23.8329C22.6172 24.9662 21.8287 25.8886 20.8594 25.8886C20.5357 25.8886 20.2734 26.1953 20.2734 26.5738C20.2734 26.952 20.5357 27.259 20.8594 27.259Z" fill="#00B2FF"/>
</g></symbol><symbol id="detective" viewBox="0 0 35 35">
<path d="M17.5 11.0172C17.1227 11.0172 16.8164 11.3751 16.8164 11.8166C16.8164 12.2579 17.1227 12.6161 17.5 12.6161C17.8773 12.6161 18.1836 12.2579 18.1836 11.8166C18.1836 11.3751 17.8773 11.0172 17.5 11.0172Z"/>
<path d="M32.9492 15.8139H30.2893C28.8872 11.1316 26.8527 2.92165 23.1672 0.598015C21.3239 -0.562708 19.5815 0.247956 18.9262 1.89489C18.6474 2.59501 18.0907 2.96318 17.5 2.96318C16.9013 2.96318 16.3491 2.58689 16.0738 1.89551C15.4417 0.30479 13.741 -0.580195 11.9624 0.429387C8.21781 2.55597 6.12377 11.0964 4.71066 15.8139H2.05078C0.917778 15.8139 0 16.8869 0 18.2121C0 19.5343 0.919914 20.6104 2.05078 20.6104H32.9492C34.0822 20.6104 35 19.5371 35 18.2121C35 16.8897 34.0801 15.8139 32.9492 15.8139ZM7.11205 12.6162H14.7656C15.1432 12.6162 15.4492 12.258 15.4492 11.8168C15.4492 11.3752 15.1432 11.0174 14.7656 11.0174H7.59003C9.65069 4.3606 11.5757 2.42638 12.5594 1.86772C13.6326 1.25879 14.516 1.76842 14.8343 2.56971C15.3357 3.82943 16.3731 4.56202 17.5 4.56202C18.6295 4.56202 19.6656 3.82662 20.1657 2.56971C20.4934 1.74562 21.3813 1.28939 22.5185 2.00543C23.5068 2.62873 25.4259 4.62729 27.4097 11.0174H20.2344C19.8568 11.0174 19.5508 11.3752 19.5508 11.8168C19.5508 12.2583 19.8568 12.6162 20.2344 12.6162H27.8882C28.2338 13.7816 28.5926 14.9842 28.841 15.8139H6.15929C6.40682 14.9864 6.76491 13.7866 7.11205 12.6162ZM32.9492 19.0116H2.05078C1.67374 19.0116 1.36719 18.6528 1.36719 18.2121C1.36719 17.7706 1.6732 17.4127 2.05078 17.4127H32.9492C33.3263 17.4127 33.6328 17.7712 33.6328 18.2121C33.6328 18.6534 33.3265 19.0116 32.9492 19.0116Z"/>
<path d="M16.1328 23.8081H5.19532C4.81774 23.8081 4.51173 24.1659 4.51173 24.6075V27.8052C4.51173 31.7723 7.27174 35 10.6641 35C13.2345 35 15.5096 33.151 16.4145 30.3655C17.1019 29.9989 17.8981 29.9989 18.5855 30.3655C19.4904 33.151 21.7655 34.9996 24.3359 34.9996C27.7283 34.9996 30.4883 31.7723 30.4883 27.8048V24.6072C30.4883 24.1656 30.1823 23.8077 29.8047 23.8077H18.8672C18.4896 23.8077 18.1836 24.1656 18.1836 24.6072V25.4066H16.8164V24.6072C16.8164 24.1659 16.5104 23.8081 16.1328 23.8081ZM10.6641 33.4011C8.02556 33.4011 5.87891 30.8907 5.87891 27.8052V25.4069H15.4492V27.8052C15.4492 30.8989 13.3141 33.4011 10.6641 33.4011ZM19.5508 25.4069H29.1211V27.8052C29.1211 30.8907 26.9745 33.4011 24.3359 33.4011C21.6793 33.4011 19.5508 30.8914 19.5508 27.8052V25.4069ZM18.1836 27.0057V27.8052C18.1836 28.0606 18.1961 28.3151 18.2188 28.5677C17.7438 28.4662 17.2562 28.4662 16.7812 28.5677C16.8039 28.3151 16.8164 28.0606 16.8164 27.8052V27.0057H18.1836Z"/>
<path d="M10.6641 30.2033C9.53321 30.2033 8.6133 29.1272 8.6133 27.805C8.6133 27.3635 8.30728 27.0056 7.9297 27.0056C7.55212 27.0056 7.24611 27.3635 7.24611 27.805C7.24611 30.0088 8.77939 31.8021 10.6641 31.8021C11.0417 31.8021 11.3477 31.444 11.3477 31.0027C11.3477 30.5612 11.0417 30.2033 10.6641 30.2033Z"/>
<path d="M24.336 31.8021C26.2206 31.8021 27.7539 30.0088 27.7539 27.805C27.7539 27.3635 27.4479 27.0056 27.0703 27.0056C26.6927 27.0056 26.3867 27.3635 26.3867 27.805C26.3867 29.1272 25.4668 30.2033 24.336 30.2033C23.9584 30.2033 23.6524 30.5612 23.6524 31.0027C23.6524 31.444 23.9584 31.8021 24.336 31.8021Z"/>
</symbol><symbol id="hired-mobile" viewBox="0 0 30 30"><g fill="none">
<path d="M26.7976 23.9084C27.1191 23.464 27.3094 22.9187 27.3094 22.3295V18.8086C27.3094 18.485 27.047 18.2227 26.7234 18.2227H24.1048C22.8942 18.2227 21.9094 19.2075 21.9094 20.418V22.3295C21.9094 22.9183 22.0994 23.4632 22.4205 23.9075C22.02 23.9725 21.6346 24.1008 21.2752 24.2886C20.4611 23.0739 19.1273 22.2361 17.5946 22.0948C17.5887 22.0931 17.5826 22.0918 17.5765 22.0904C18.1249 21.478 18.4592 20.6701 18.4592 19.7854V15C18.4592 14.6764 18.1968 14.4141 17.8733 14.4141H14.3142C12.7849 14.4141 11.5408 15.6582 11.5408 17.1874V19.7853C11.5408 20.6701 11.8751 21.4779 12.4235 22.0903C12.4174 22.0918 12.4113 22.0931 12.4054 22.0947C10.8725 22.236 9.53865 23.0739 8.72461 24.2889C8.36508 24.1011 7.97965 23.9726 7.57928 23.9077C7.90049 23.4634 8.09062 22.9184 8.09062 22.3295V18.8086C8.09062 18.485 7.82824 18.2227 7.50469 18.2227H4.88602C3.67547 18.2227 2.69062 19.2075 2.69062 20.418V22.3295C2.69062 22.9187 2.88088 23.464 3.20244 23.9084C1.38879 24.2048 0 25.7821 0 27.6782V29.4141C0 29.7377 0.262383 30 0.585938 30H29.4141C29.7376 30 30 29.7377 30 29.4141V27.6782C30 25.7821 28.6112 24.2048 26.7976 23.9084ZM3.8625 20.418C3.8625 19.8537 4.32164 19.3945 4.88602 19.3945H6.91875V20.1081C6.91875 20.4581 6.6341 20.7427 6.28424 20.7427H3.8625V20.418ZM3.8625 21.9145H6.28424C6.50748 21.9145 6.72123 21.8736 6.91875 21.7992V22.3295C6.91875 23.1721 6.23326 23.8576 5.39062 23.8576C4.54799 23.8576 3.8625 23.1721 3.8625 22.3295V21.9145ZM5.76838 25.0295L5.39062 25.4072L5.01287 25.0295H5.76838ZM7.88391 27.0548V28.8281H1.17188V27.6782C1.17188 26.364 2.13416 25.2708 3.391 25.0649L4.97631 26.6502C5.08623 26.7601 5.23523 26.8218 5.39062 26.8218C5.54602 26.8218 5.69502 26.7601 5.80494 26.6502L7.39072 25.0644C7.6708 25.1099 7.94016 25.2002 8.19117 25.3323C7.99266 25.8694 7.88391 26.4496 7.88391 27.0548ZM15.0001 22.0727C13.7388 22.0727 12.7127 21.0466 12.7127 19.7854V19.0109H16.2145C16.6028 19.0109 16.9685 18.9117 17.2874 18.7375V19.7854C17.2874 21.0466 16.2613 22.0727 15.0001 22.0727ZM16.0214 23.2445L15 24.2659L13.9786 23.2445H16.0214ZM12.7126 17.1874H12.7127C12.7127 16.3044 13.4311 15.5859 14.3142 15.5859H17.2873V16.7663C17.2873 17.3578 16.806 17.8391 16.2145 17.8391H12.7126V17.1874ZM20.9442 28.8281H19.8047H10.1953H9.05584V27.6562H12.8711C13.1947 27.6562 13.4571 27.3939 13.4571 27.0703C13.4571 26.7467 13.1947 26.4844 12.8711 26.4844H9.09867C9.3498 24.8191 10.6828 23.5045 12.3564 23.2796L14.5857 25.5088C14.7001 25.6233 14.8501 25.6805 15 25.6805C15.1499 25.6805 15.2999 25.6233 15.4143 25.5088L17.6436 23.2796C19.5043 23.5297 20.9442 25.1268 20.9442 27.0548V28.8281ZM23.0813 20.418C23.0813 19.8537 23.5404 19.3945 24.1048 19.3945H26.1375V20.1081C26.1375 20.4581 25.8529 20.7427 25.503 20.7427H23.0813V20.418ZM23.0813 21.9145H25.503C25.7262 21.9145 25.94 21.8736 26.1375 21.7992V22.3295C26.1375 23.1721 25.452 23.8576 24.6094 23.8576C23.7667 23.8576 23.0813 23.1721 23.0813 22.3295V21.9145ZM24.9871 25.0295L24.6094 25.4072L24.2316 25.0295H24.9871ZM22.116 28.8281V27.0548C22.116 26.4496 22.0073 25.8693 21.8087 25.3322C22.0596 25.2 22.3289 25.1098 22.609 25.0642L24.195 26.6502C24.3049 26.7601 24.4539 26.8218 24.6093 26.8218C24.7647 26.8218 24.9137 26.7601 25.0236 26.6502L26.6089 25.0649C27.8658 25.2708 28.8281 26.364 28.8281 27.6782V28.8281H22.116Z" fill="#00B2FF"/>
<path d="M17.888 3.82847C17.6591 3.59966 17.2882 3.59966 17.0593 3.82847L14.1841 6.70372L12.9412 5.46077C12.7123 5.2319 12.3414 5.2319 12.1125 5.46071C11.8837 5.68952 11.8837 6.06054 12.1125 6.2894L13.7698 7.94667C13.8797 8.05653 14.0287 8.11829 14.1841 8.11829C14.3395 8.11829 14.4885 8.05653 14.5984 7.94667L17.888 4.6571C18.1168 4.42829 18.1168 4.05728 17.888 3.82847Z" fill="#00B2FF"/>
<path d="M17.3955 0.508091C17.1 0.376314 16.7535 0.509029 16.6217 0.804576C16.4898 1.10012 16.6226 1.44659 16.9182 1.57836C18.6173 2.33616 19.7153 4.02758 19.7153 5.88747C19.7153 8.48762 17.5998 10.603 14.9997 10.603C12.3995 10.603 10.2841 8.48762 10.2841 5.88747C10.2841 4.03719 11.3741 2.34928 13.0611 1.58739C13.356 1.4542 13.4871 1.1071 13.3538 0.812193C13.2207 0.517232 12.8734 0.386158 12.5787 0.519341C10.473 1.47044 9.1123 3.57752 9.1123 5.88741C9.11225 9.13379 11.7534 11.7749 14.9997 11.7749C18.246 11.7749 20.8871 9.13379 20.8871 5.88747C20.8871 3.56557 19.5166 1.45403 17.3955 0.508091Z" fill="#00B2FF"/>
<path d="M15.021 0H15C14.6764 0 14.4141 0.262324 14.4141 0.585938C14.4141 0.909551 14.6764 1.17188 15 1.17188H15.0155C15.0164 1.17188 15.0173 1.17188 15.0183 1.17188C15.3406 1.17188 15.6026 0.911367 15.6042 0.588691C15.6057 0.265078 15.3446 0.00152344 15.021 0Z" fill="#00B2FF"/>
<path d="M15.4142 26.6561C15.3053 26.5471 15.1541 26.4844 15 26.4844C14.8459 26.4844 14.6947 26.5471 14.5857 26.6561C14.4768 26.765 14.4141 26.9162 14.4141 27.0703C14.4141 27.2244 14.4767 27.3756 14.5857 27.4846C14.6948 27.5936 14.8459 27.6562 15 27.6562C15.1541 27.6562 15.3053 27.5936 15.4142 27.4846C15.5232 27.3756 15.5859 27.2244 15.5859 27.0703C15.5859 26.9162 15.5232 26.765 15.4142 26.6561Z" fill="#00B2FF"/>
</g></symbol><symbol id="hired" viewBox="0 0 35 35">
<path d="M31.2638 27.8931C31.639 27.3746 31.8609 26.7384 31.8609 26.0511V21.9434C31.8609 21.5658 31.5548 21.2598 31.1773 21.2598H28.1222C26.7099 21.2598 25.5609 22.4087 25.5609 23.8211V26.0511C25.5609 26.738 25.7826 27.3738 26.1573 27.8921C25.69 27.9679 25.2404 28.1176 24.8211 28.3367C23.8713 26.9195 22.3152 25.9421 20.5271 25.7772C20.5201 25.7752 20.513 25.7738 20.506 25.7721C21.1457 25.0577 21.5357 24.1151 21.5357 23.0829V17.5C21.5357 17.1225 21.2296 16.8164 20.8521 16.8164H16.6999C14.9157 16.8164 13.4643 18.2679 13.4643 20.052V23.0828C13.4643 24.1151 13.8543 25.0576 14.494 25.772C14.487 25.7737 14.4799 25.7752 14.4729 25.7772C12.6846 25.942 11.1284 26.9196 10.1787 28.337C9.75926 28.1179 9.30959 27.9681 8.84249 27.8923C9.21724 27.374 9.43906 26.7381 9.43906 26.0511V21.9434C9.43906 21.5658 9.13295 21.2598 8.75547 21.2598H5.70035C4.28805 21.2598 3.13906 22.4087 3.13906 23.8211V26.0511C3.13906 26.7385 3.36103 27.3746 3.73618 27.8931C1.62025 28.2389 0 30.0791 0 32.2913V34.3164C0 34.694 0.306113 35 0.683594 35H34.3164C34.6939 35 35 34.694 35 34.3164V32.2913C35 30.0791 33.3797 28.2389 31.2638 27.8931ZM4.50625 23.8211C4.50625 23.1626 5.04191 22.627 5.70035 22.627H8.07188V23.4595C8.07188 23.8677 7.73979 24.1998 7.33161 24.1998H4.50625V23.8211ZM4.50625 25.567H7.33161C7.59206 25.567 7.84144 25.5192 8.07188 25.4324V26.0511C8.07188 27.0341 7.27214 27.8339 6.28906 27.8339C5.30599 27.8339 4.50625 27.0341 4.50625 26.0511V25.567ZM6.72978 29.2011L6.28906 29.6418L5.84835 29.2011H6.72978ZM9.19789 31.564V33.6328H1.36719V32.2913C1.36719 30.758 2.48985 29.4826 3.95616 29.2424L5.80569 31.0919C5.93394 31.2201 6.10777 31.2921 6.28906 31.2921C6.47035 31.2921 6.64419 31.2201 6.77243 31.0919L8.62251 29.2417C8.94927 29.2949 9.26352 29.4003 9.55637 29.5544C9.32477 30.1809 9.19789 30.8579 9.19789 31.564ZM17.5001 25.7515C16.0286 25.7515 14.8315 24.5543 14.8315 23.0829V22.1794H18.917C19.37 22.1794 19.7965 22.0637 20.1686 21.8604V23.0829C20.1686 24.5543 18.9715 25.7515 17.5001 25.7515ZM18.6916 27.1186L17.5 28.3102L16.3084 27.1186H18.6916ZM14.8314 20.052H14.8315C14.8315 19.0217 15.6696 18.1836 16.6999 18.1836H20.1685V19.5606C20.1685 20.2508 19.607 20.8123 18.9169 20.8123H14.8314V20.052ZM24.4349 33.6328H23.1055H11.8945H10.5651V32.2656H15.0163C15.3938 32.2656 15.6999 31.9596 15.6999 31.582C15.6999 31.2045 15.3938 30.8984 15.0163 30.8984H10.6151C10.9081 28.9556 12.4633 27.422 14.4158 27.1595L17.0166 29.7603C17.1501 29.8938 17.3251 29.9605 17.5 29.9605C17.6749 29.9605 17.8499 29.8938 17.9834 29.7603L20.5842 27.1595C22.755 27.4513 24.4349 29.3145 24.4349 31.564V33.6328ZM26.9281 23.8211C26.9281 23.1626 27.4638 22.627 28.1222 22.627H30.4937V23.4595C30.4937 23.8677 30.1617 24.1998 29.7535 24.1998H26.9281V23.8211ZM26.9281 25.567H29.7535C30.0139 25.567 30.2633 25.5192 30.4937 25.4324V26.0511C30.4937 27.0341 29.694 27.8339 28.7109 27.8339C27.7279 27.8339 26.9281 27.0341 26.9281 26.0511V25.567ZM29.1516 29.2011L28.7109 29.6418L28.2702 29.2011H29.1516ZM25.802 33.6328V31.564C25.802 30.8578 25.6752 30.1809 25.4435 29.5542C25.7362 29.4 26.0504 29.2947 26.3772 29.2416L28.2275 31.0919C28.3557 31.2201 28.5296 31.2921 28.7109 31.2921C28.8922 31.2921 29.066 31.2201 29.1942 31.0919L31.0438 29.2424C32.5101 29.4826 33.6327 30.758 33.6327 32.2913V33.6328H25.802Z"/>
<path d="M20.8689 4.4665C20.6019 4.19956 20.1692 4.19956 19.9021 4.4665L16.5477 7.82097L15.0976 6.37086C14.8306 6.10385 14.3979 6.10385 14.1309 6.37079C13.8639 6.63773 13.8639 7.07059 14.1309 7.3376L16.0643 9.27107C16.1926 9.39925 16.3664 9.4713 16.5477 9.4713C16.729 9.4713 16.9028 9.39925 17.0311 9.27107L20.8689 5.43324C21.1359 5.1663 21.1359 4.73345 20.8689 4.4665Z"/>
<path d="M20.2955 0.592814C19.9508 0.439074 19.5466 0.593908 19.3928 0.938712C19.239 1.28352 19.3939 1.68773 19.7387 1.84147C21.721 2.72556 23.0019 4.69889 23.0019 6.86875C23.0019 9.90227 20.534 12.3702 17.5004 12.3702C14.4669 12.3702 11.999 9.90227 11.999 6.86875C11.999 4.7101 13.2706 2.74087 15.2387 1.85199C15.5828 1.69661 15.7358 1.29165 15.5803 0.947599C15.4249 0.603478 15.0198 0.450558 14.676 0.605939C12.2193 1.71555 10.6318 4.17382 10.6318 6.86868C10.6318 10.6561 13.7131 13.7374 17.5004 13.7374C21.2878 13.7374 24.3691 10.6561 24.3691 6.86875C24.3691 4.15987 22.7701 1.69641 20.2955 0.592814Z"/>
<path d="M17.5254 0H17.501C17.1235 0 16.8174 0.306045 16.8174 0.683594C16.8174 1.06114 17.1235 1.36719 17.501 1.36719H17.519C17.5201 1.36719 17.5211 1.36719 17.5223 1.36719C17.8984 1.36719 18.2041 1.06326 18.2058 0.686807C18.2076 0.309258 17.903 0.00177734 17.5254 0Z"/>
<path d="M17.9842 31.0987C17.8571 30.9716 17.6808 30.8984 17.501 30.8984C17.3212 30.8984 17.1448 30.9716 17.0177 31.0987C16.8905 31.2259 16.8174 31.4022 16.8174 31.582C16.8174 31.7618 16.8905 31.9382 17.0177 32.0653C17.1449 32.1925 17.3212 32.2656 17.501 32.2656C17.6808 32.2656 17.8571 32.1925 17.9842 32.0653C18.1114 31.9382 18.1846 31.7618 18.1846 31.582C18.1846 31.4022 18.1114 31.2259 17.9842 31.0987Z"/>
</symbol><symbol id="icon-close" viewBox="0 0 20 20"><g fill="none"><path d="M.293 18.291a1 1 0 101.414 1.414L10 11.413l8.292 8.292a1 1 0 101.414-1.414l-8.292-8.292 8.292-8.292A1 1 0 1018.291.293L9.999 8.585 1.707.293A1 1 0 10.293 1.707L8.585 10 .293 18.291z"/></g></symbol><symbol id="letter" viewBox="0 0 20 20">
<path d="M17.5584 0H2.44568C1.09663 0 0 1.441 0 3.2137V16.7863C0 18.559 1.09663 20 2.44568 20H17.5543C18.9034 20 20 18.559 20 16.7863V3.21914C20.0041 1.44644 18.9075 0 17.5584 0ZM18.8868 16.7863C18.8868 17.7488 18.2909 18.5318 17.5584 18.5318H2.44568C1.71322 18.5318 1.11732 17.7488 1.11732 16.7863V3.21914C1.11732 2.25666 1.71322 1.47363 2.44568 1.47363H17.5543C18.2868 1.47363 18.8827 2.25666 18.8827 3.21914V16.7863H18.8868Z"/>
<path d="M12.6133 9.83144L17.5046 4.06744C17.7322 3.79555 17.7529 3.33334 17.546 3.02883C17.3391 2.72975 16.9873 2.70256 16.7556 2.97445L10.0103 10.9299L8.69436 9.38554C8.69023 9.38011 8.68609 9.37467 8.68609 9.36923C8.65712 9.33117 8.62815 9.29854 8.59505 9.26591L3.2402 2.96901C3.00846 2.69713 2.65671 2.72431 2.4498 3.02883C2.24289 3.33334 2.26358 3.79555 2.49532 4.06744L7.44462 9.88038L2.51601 15.9435C2.29255 16.2208 2.28013 16.683 2.49118 16.9821C2.60291 17.1343 2.75189 17.2159 2.90086 17.2159C3.03743 17.2159 3.17399 17.1506 3.28158 17.0201L8.28468 10.87L9.64201 12.4633C9.74961 12.5884 9.88203 12.6482 10.0145 12.6482C10.1469 12.6482 10.2834 12.5829 10.3869 12.4579L11.7815 10.8157L16.7556 17.0256C16.8632 17.1615 17.0039 17.2268 17.1405 17.2268C17.2894 17.2268 17.4343 17.1506 17.546 16.9984C17.7571 16.7047 17.7488 16.2371 17.5253 15.9598L12.6133 9.83144Z"/>
</symbol><symbol id="logo" viewBox="0 0 55 55">
<path d="M33.9167 14.6664C35.1102 14.6664 36.1185 15.4355 36.498 16.4997H46.002C46.3815 15.4355 47.3899 14.6664 48.5834 14.6664C50.0995 14.6664 51.3334 15.9002 51.3334 17.4164C51.3334 18.9325 50.0995 20.1663 48.5834 20.1663C47.3899 20.1663 46.3815 19.3973 46.002 18.333H36.4971C36.1176 19.3973 35.1093 20.1663 33.9158 20.1663C32.3996 20.1663 31.1658 18.9325 31.1658 17.4164C31.1658 15.9002 32.4005 14.6664 33.9167 14.6664ZM48.5834 18.333C49.0884 18.333 49.5 17.9224 49.5 17.4164C49.5 16.9104 49.0884 16.4997 48.5834 16.4997C48.0783 16.4997 47.6667 16.9104 47.6667 17.4164C47.6667 17.9224 48.0783 18.333 48.5834 18.333ZM33.9167 18.333C34.4218 18.333 34.8334 17.9224 34.8334 17.4164C34.8334 16.9104 34.4218 16.4997 33.9167 16.4997C33.4116 16.4997 33 16.9104 33 17.4164C33 17.9224 33.4116 18.333 33.9167 18.333Z"/>
<path d="M26.5834 20.335V14.6664C26.5834 14.4226 26.6796 14.1898 26.8519 14.0184L30.5186 10.3517C30.69 10.1794 30.9238 10.0832 31.1667 10.0832H34.0854C34.4649 9.01893 35.4732 8.24986 36.6667 8.24986C38.1829 8.24986 39.4167 9.48368 39.4167 10.9998C39.4167 12.516 38.1829 13.7498 36.6667 13.7498C35.4732 13.7498 34.4649 12.9807 34.0854 11.9165H31.5462L28.4167 15.0459V20.335C29.4809 20.7145 30.25 21.7228 30.25 22.9163C30.25 24.4324 29.0162 25.6662 27.5 25.6662C25.9839 25.6662 24.75 24.4324 24.75 22.9163C24.75 21.7228 25.5191 20.7145 26.5834 20.335ZM36.6667 11.9165C37.1718 11.9165 37.5834 11.5058 37.5834 10.9998C37.5834 10.4938 37.1718 10.0832 36.6667 10.0832C36.1616 10.0832 35.75 10.4938 35.75 10.9998C35.75 11.5058 36.1616 11.9165 36.6667 11.9165ZM27.5 23.8329C28.0051 23.8329 28.4167 23.4223 28.4167 22.9163C28.4167 22.4103 28.0051 21.9996 27.5 21.9996C26.9949 21.9996 26.5834 22.4103 26.5834 22.9163C26.5834 23.4223 26.9949 23.8329 27.5 23.8329Z"/>
<path d="M10.0833 23.8329C10.5068 23.8329 10.9028 23.9365 11.2613 24.1089L12.8333 22.5368V13.7498C12.8333 13.5059 12.9296 13.2731 13.1019 13.1017L22.2759 3.92785C22.1036 3.56944 22 3.17345 22 2.74995C22 1.23381 23.2338 0 24.75 0C26.2662 0 27.5 1.23381 27.5 2.74995C27.5 4.2661 26.2662 5.49991 24.75 5.49991C24.3265 5.49991 23.9305 5.39633 23.5721 5.224L14.6667 14.1293V22.9163C14.6667 23.1601 14.5704 23.3929 14.3981 23.5644L12.5574 25.405C12.7298 25.7634 12.8333 26.1594 12.8333 26.5829C12.8333 28.099 11.5995 29.3328 10.0833 29.3328C8.56717 29.3328 7.33334 28.099 7.33334 26.5829C7.33334 25.0667 8.56717 23.8329 10.0833 23.8329ZM24.75 3.66661C25.2551 3.66661 25.6667 3.25595 25.6667 2.74995C25.6667 2.24396 25.2551 1.8333 24.75 1.8333C24.2449 1.8333 23.8333 2.24396 23.8333 2.74995C23.8333 3.25595 24.2449 3.66661 24.75 3.66661ZM10.0833 27.4995C10.5884 27.4995 11 27.0889 11 26.5829C11 26.0769 10.5884 25.6662 10.0833 25.6662C9.57826 25.6662 9.16668 26.0769 9.16668 26.5829C9.16668 27.0889 9.57826 27.4995 10.0833 27.4995Z"/>
<path d="M1.83336 13.0018V9.16651C1.83336 8.92268 1.92961 8.68986 2.10195 8.51844L8.51861 2.10188C8.69003 1.92955 8.92378 1.8333 9.1667 1.8333H13.9187C14.2982 0.769071 15.3065 0 16.5 0C18.0162 0 19.25 1.23381 19.25 2.74995C19.25 4.2661 18.0162 5.49991 16.5 5.49991C15.3065 5.49991 14.2982 4.73084 13.9187 3.66661H9.5462L3.6667 9.54601V13.0018C4.73095 13.3813 5.50003 14.3896 5.50003 15.5831C5.50003 17.0992 4.2662 18.333 2.75003 18.333C1.23386 18.333 3.05176e-05 17.0992 3.05176e-05 15.5831C3.05176e-05 14.3896 0.769114 13.3813 1.83336 13.0018ZM16.5 3.66661C17.0051 3.66661 17.4167 3.25595 17.4167 2.74995C17.4167 2.24396 17.0051 1.8333 16.5 1.8333C15.9949 1.8333 15.5834 2.24396 15.5834 2.74995C15.5834 3.25595 15.9949 3.66661 16.5 3.66661ZM2.75003 16.4997C3.25511 16.4997 3.6667 16.0891 3.6667 15.5831C3.6667 15.0771 3.25511 14.6664 2.75003 14.6664C2.24495 14.6664 1.83336 15.0771 1.83336 15.5831C1.83336 16.0891 2.24495 16.4997 2.75003 16.4997Z"/>
<path d="M14.6658 49.6688V36.4974C13.6024 36.1179 12.8334 35.1096 12.8334 33.9161C12.8334 32.4 14.0672 31.1662 15.5834 31.1662C16.7769 31.1662 17.7852 31.9352 18.1647 32.9995H27.6687C28.0482 31.9352 29.0565 31.1662 30.25 31.1662C31.4435 31.1662 32.4519 31.9352 32.8314 32.9995H38.1205L41.5259 29.5941C41.3536 29.2357 41.25 28.8397 41.25 28.4162C41.25 26.9001 42.4839 25.6663 44 25.6663C45.5162 25.6663 46.75 26.9001 46.75 28.4162C46.75 29.9324 45.5162 31.1662 44 31.1662C43.5765 31.1662 43.1805 31.0626 42.8221 30.8903L39.1481 34.5642C38.9767 34.7365 38.7429 34.8328 38.5 34.8328H32.8314C32.4519 35.897 31.4435 36.6661 30.25 36.6661C29.0565 36.6661 28.0482 35.897 27.6687 34.8328H18.1638C17.8869 35.6092 17.2755 36.2206 16.4991 36.4974V49.6688C17.5634 50.0483 18.3324 51.0566 18.3324 52.2501C18.3324 53.7662 17.0986 55 15.5824 55C14.0663 55 12.8324 53.7662 12.8324 52.2501C12.8324 51.0566 13.6015 50.0483 14.6658 49.6688ZM44 29.3329C44.5051 29.3329 44.9167 28.9222 44.9167 28.4162C44.9167 27.9102 44.5051 27.4996 44 27.4996C43.4949 27.4996 43.0834 27.9102 43.0834 28.4162C43.0834 28.9222 43.4949 29.3329 44 29.3329ZM30.25 34.8328C30.7551 34.8328 31.1667 34.4221 31.1667 33.9161C31.1667 33.4101 30.7551 32.9995 30.25 32.9995C29.7449 32.9995 29.3334 33.4101 29.3334 33.9161C29.3334 34.4221 29.7449 34.8328 30.25 34.8328ZM15.5834 53.1658C16.0884 53.1658 16.5 52.7551 16.5 52.2492C16.5 51.7432 16.0884 51.3325 15.5834 51.3325C15.0783 51.3325 14.6667 51.7432 14.6667 52.2492C14.6667 52.7551 15.0783 53.1658 15.5834 53.1658ZM15.5834 34.8328C16.0884 34.8328 16.5 34.4221 16.5 33.9161C16.5 33.4101 16.0884 32.9995 15.5834 32.9995C15.0783 32.9995 14.6667 33.4101 14.6667 33.9161C14.6667 34.4221 15.0783 34.8328 15.5834 34.8328Z"/>
<path d="M19.25 18.5017V15.5831C19.25 15.3392 19.3463 15.1064 19.5186 14.935L30.5259 3.92785C30.3536 3.56944 30.25 3.17345 30.25 2.74995C30.25 1.23381 31.4838 0 33 0C34.1935 0 35.2018 0.769071 35.5813 1.8333H39.4167C39.9227 1.8333 40.3333 2.24305 40.3333 2.74995V5.12041L43.7388 8.52577C44.0972 8.35344 44.4932 8.24986 44.9167 8.24986C46.4328 8.24986 47.6667 9.48368 47.6667 10.9998C47.6667 12.516 46.4328 13.7498 44.9167 13.7498C43.4005 13.7498 42.1667 12.516 42.1667 10.9998C42.1667 10.5763 42.2703 10.1803 42.4426 9.82192L38.7686 6.14798C38.5963 5.97657 38.5 5.74374 38.5 5.49991V3.66661H35.5813C35.2018 4.73084 34.1935 5.49991 33 5.49991C32.5765 5.49991 32.1805 5.39633 31.8221 5.224L21.0833 15.9626V18.5017C22.1476 18.8812 22.9167 19.8895 22.9167 21.083C22.9167 22.5991 21.6828 23.8329 20.1667 23.8329C18.6505 23.8329 17.4167 22.5991 17.4167 21.083C17.4167 19.8895 18.1858 18.8812 19.25 18.5017ZM44.9167 11.9165C45.4218 11.9165 45.8333 11.5058 45.8333 10.9998C45.8333 10.4938 45.4218 10.0832 44.9167 10.0832C44.4116 10.0832 44 10.4938 44 10.9998C44 11.5058 44.4116 11.9165 44.9167 11.9165ZM33 3.66661C33.5051 3.66661 33.9167 3.25595 33.9167 2.74995C33.9167 2.24396 33.5051 1.8333 33 1.8333C32.4949 1.8333 32.0833 2.24396 32.0833 2.74995C32.0833 3.25595 32.4949 3.66661 33 3.66661ZM20.1667 21.9996C20.6718 21.9996 21.0833 21.589 21.0833 21.083C21.0833 20.577 20.6718 20.1663 20.1667 20.1663C19.6616 20.1663 19.25 20.577 19.25 21.083C19.25 21.589 19.6616 21.9996 20.1667 21.9996Z"/>
<path d="M22 25.6662C23.1935 25.6662 24.2018 26.4353 24.5813 27.4995H35.3705L40.6019 22.2682C40.7733 22.0959 41.0071 21.9996 41.25 21.9996H50.9538L53.1667 19.7868V12.296L46.0946 5.224C45.7362 5.39633 45.3402 5.49991 44.9167 5.49991C43.4005 5.49991 42.1667 4.2661 42.1667 2.74995C42.1667 1.23381 43.4005 0 44.9167 0C46.4328 0 47.6667 1.23381 47.6667 2.74995C47.6667 3.17345 47.5631 3.56944 47.3907 3.92785L54.7314 11.2684C54.9037 11.4398 55 11.6726 55 11.9165V20.1663C55 20.4102 54.9037 20.643 54.7314 20.8144L51.9814 23.5644C51.81 23.7367 51.5762 23.8329 51.3333 23.8329H41.6295L36.3981 29.0643C36.2267 29.2366 35.9929 29.3328 35.75 29.3328H24.5813C24.2018 30.3971 23.1935 31.1661 22 31.1661C20.4838 31.1661 19.25 29.9323 19.25 28.4162C19.25 26.9001 20.4838 25.6662 22 25.6662ZM44.9167 1.8333C44.4116 1.8333 44 2.24396 44 2.74995C44 3.25595 44.4116 3.66661 44.9167 3.66661C45.4217 3.66661 45.8333 3.25595 45.8333 2.74995C45.8333 2.24396 45.4217 1.8333 44.9167 1.8333ZM22 29.3328C22.5051 29.3328 22.9167 28.9222 22.9167 28.4162C22.9167 27.9102 22.5051 27.4995 22 27.4995C21.4949 27.4995 21.0833 27.9102 21.0833 28.4162C21.0833 28.9222 21.4949 29.3328 22 29.3328Z"/>
<path d="M2.75001 21.9996C3.17351 21.9996 3.56951 22.1032 3.92793 22.2755L7.33334 18.8702V13.5811C6.26909 13.2016 5.50001 12.1933 5.50001 10.9998C5.50001 9.48368 6.73384 8.24986 8.25001 8.24986C9.76618 8.24986 11 9.48368 11 10.9998C11 12.1933 10.2309 13.2016 9.16668 13.5811V19.2497C9.16668 19.4935 9.07043 19.7263 8.89809 19.8978L5.2241 23.5717C5.39643 23.9301 5.50001 24.3261 5.50001 24.7496C5.50001 25.9431 4.73093 26.9514 3.66668 27.3309V28.0367L10.7314 35.1013C10.9038 35.2727 11 35.5056 11 35.7494V36.8347C12.0643 37.2142 12.8333 38.2225 12.8333 39.416C12.8333 40.6095 12.0643 41.6178 11 41.9973V44.1688C12.0643 44.5483 12.8333 45.5567 12.8333 46.7501C12.8333 48.2663 11.5995 49.5001 10.0833 49.5001C8.56718 49.5001 7.33334 48.2663 7.33334 46.7501C7.33334 45.5567 8.10243 44.5483 9.16668 44.1688V41.9973C8.10243 41.6178 7.33334 40.6095 7.33334 39.416C7.33334 38.2225 8.10243 37.2142 9.16668 36.8347V36.1289L2.10193 29.0643C1.92959 28.8929 1.83334 28.66 1.83334 28.4162V27.3309C0.769094 26.9514 1.14441e-05 25.9431 1.14441e-05 24.7496C1.14441e-05 23.2334 1.23384 21.9996 2.75001 21.9996ZM8.25001 11.9165C8.75509 11.9165 9.16668 11.5058 9.16668 10.9998C9.16668 10.4938 8.75509 10.0832 8.25001 10.0832C7.74493 10.0832 7.33334 10.4938 7.33334 10.9998C7.33334 11.5058 7.74493 11.9165 8.25001 11.9165ZM10.0833 47.6659C10.5884 47.6659 11 47.2552 11 46.7492C11 46.2432 10.5884 45.8326 10.0833 45.8326C9.57826 45.8326 9.16668 46.2432 9.16668 46.7492C9.16668 47.2552 9.57826 47.6659 10.0833 47.6659ZM10.0833 40.3327C10.5884 40.3327 11 39.922 11 39.416C11 38.91 10.5884 38.4994 10.0833 38.4994C9.57826 38.4994 9.16668 38.91 9.16668 39.416C9.16668 39.922 9.57826 40.3327 10.0833 40.3327ZM2.75001 25.6662C3.25509 25.6662 3.66668 25.2556 3.66668 24.7496C3.66668 24.2436 3.25509 23.8329 2.75001 23.8329C2.24493 23.8329 1.83334 24.2436 1.83334 24.7496C1.83334 25.2556 2.24493 25.6662 2.75001 25.6662Z"/>
</symbol><symbol id="ok-logo" viewBox="0 0 30 30">
<path d="M15.171 12.6428C16.3282 12.6428 17.2282 11.6785 17.2067 10.6285C17.2282 9.57849 16.3496 8.59277 15.1924 8.59277C14.0782 8.59277 13.1567 9.49277 13.1567 10.6071C13.1567 11.7213 14.0567 12.6428 15.171 12.6428Z"/>
<path d="M15 0C6.72856 0 0 6.72857 0 15C0 23.2929 6.72856 30 15 30C23.2928 30 29.9999 23.2714 29.9999 15C30.0214 6.72857 23.2928 0 15 0ZM15.2143 5.67857C17.9143 5.67857 20.1428 7.90714 20.1214 10.6286C20.1214 13.3714 17.8714 15.5786 15.1285 15.5357C12.4285 15.4929 10.2643 13.2857 10.2643 10.6071C10.2643 7.88571 12.4714 5.67857 15.2143 5.67857ZM20.7214 17.25C20.7214 17.2929 20.7 17.3143 20.7 17.3571C20.6357 17.7857 20.4214 18.1286 20.0571 18.3643C19.8214 18.5143 19.5643 18.6643 19.3071 18.7929C18.6643 19.1143 17.9785 19.3714 17.2714 19.5429C17.1857 19.5643 17.1857 19.5643 17.25 19.6286C17.6357 20.0143 18.0428 20.4214 18.4285 20.8071C18.9214 21.3 19.4357 21.8143 19.9285 22.3071C20.6357 23.0143 20.4428 24.1929 19.5428 24.6214C19.3928 24.7071 19.2214 24.7286 19.05 24.7714C18.9643 24.7714 18.8571 24.7714 18.7714 24.7714C18.75 24.7714 18.7285 24.7714 18.7285 24.75C18.3857 24.7071 18.1071 24.5357 17.85 24.3C16.9928 23.4429 16.1143 22.5643 15.2571 21.7071C15.1928 21.6429 15.1928 21.6429 15.1285 21.7071C14.25 22.5857 13.3928 23.4429 12.5143 24.3214C12.3643 24.4714 12.2143 24.5786 12.0214 24.6643C11.8928 24.7286 11.7428 24.75 11.6143 24.7714C11.5286 24.7714 11.4428 24.7714 11.3357 24.7714C11.2928 24.7714 11.2714 24.75 11.2286 24.75C10.65 24.6429 10.2643 24.3214 10.0928 23.7643C9.92141 23.2071 10.05 22.7143 10.4571 22.3071C10.8214 21.9429 11.1643 21.6 11.5286 21.2357C12.0643 20.7 12.6 20.1643 13.1143 19.65C13.1785 19.5857 13.1785 19.5857 13.0928 19.5643C13.0714 19.5643 13.0285 19.5429 13.0071 19.5429C12.0428 19.3071 11.1643 18.9214 10.3286 18.4071C9.8357 18.0857 9.59998 17.6143 9.66427 17.0357C9.77141 15.9643 10.9714 15.3857 11.8714 15.9643C12.0428 16.0714 12.1928 16.1571 12.3857 16.2429C13.3714 16.7357 14.4214 16.95 15.5143 16.8857C16.05 16.8643 16.5857 16.7571 17.1214 16.5857C17.6357 16.4143 18.0857 16.1786 18.5571 15.9214C19.3285 15.4714 20.3357 15.8357 20.6357 16.6714C20.6785 16.8 20.7 16.9071 20.7214 17.0357C20.7214 17.1 20.7214 17.1643 20.7214 17.25Z"/>
</symbol><symbol id="phone" viewBox="0 0 20 20">
<path d="M15.8147 12.3893C15.4047 11.9629 14.9101 11.735 14.3859 11.735C13.866 11.735 13.3672 11.9587 12.9402 12.3851L11.6044 13.7147C11.4945 13.6556 11.3846 13.6007 11.2789 13.5459C11.1267 13.4699 10.983 13.3981 10.8604 13.3222C9.6091 12.5286 8.47196 11.4944 7.38132 10.1563C6.85291 9.48936 6.49782 8.92795 6.23995 8.35809C6.58659 8.04151 6.90786 7.71226 7.22068 7.39567C7.33905 7.27748 7.45741 7.15507 7.57578 7.03688C8.4635 6.15044 8.4635 5.00229 7.57578 4.11585L6.42173 2.96348C6.29068 2.83262 6.15541 2.69755 6.02859 2.56247C5.77495 2.30076 5.50863 2.03061 5.23386 1.77734C4.82381 1.37211 4.33345 1.15683 3.81772 1.15683C3.30199 1.15683 2.80317 1.37211 2.38045 1.77734C2.37622 1.78156 2.37622 1.78156 2.37199 1.78578L0.934715 3.23363C0.393623 3.77394 0.0850312 4.43243 0.0173946 5.19646C-0.0840601 6.42903 0.279486 7.57718 0.558487 8.32854C1.24331 10.1732 2.26631 11.8827 3.79236 13.7147C5.64391 15.9224 7.87168 17.6657 10.4165 18.8941C11.3888 19.3542 12.6866 19.8987 14.1365 19.9916C14.2253 19.9958 14.3183 20 14.4028 20C15.3793 20 16.1994 19.6496 16.842 18.9532C16.8462 18.9447 16.8547 18.9405 16.8589 18.932C17.0787 18.6661 17.3323 18.4255 17.5987 18.168C17.7804 17.995 17.9664 17.8134 18.1482 17.6235C18.5667 17.1887 18.7865 16.6822 18.7865 16.163C18.7865 15.6396 18.5625 15.1372 18.1355 14.7151L15.8147 12.3893ZM17.3281 16.8341C17.3239 16.8341 17.3239 16.8384 17.3281 16.8341C17.1633 17.0114 16.9942 17.1718 16.8124 17.3491C16.5376 17.6108 16.2586 17.8852 15.9965 18.1933C15.5696 18.6492 15.0665 18.8645 14.4071 18.8645C14.3437 18.8645 14.276 18.8645 14.2126 18.8603C12.9571 18.7801 11.7904 18.2904 10.9153 17.8725C8.52269 16.7159 6.42173 15.0739 4.67586 12.9929C3.23436 11.258 2.27054 9.65398 1.63222 7.93176C1.23908 6.88069 1.09535 6.06179 1.15876 5.28932C1.20103 4.79545 1.39126 4.386 1.74213 4.03565L3.18363 2.59624C3.39077 2.40207 3.61058 2.29654 3.82618 2.29654C4.09249 2.29654 4.30809 2.45694 4.44336 2.59202C4.44759 2.59624 4.45181 2.60046 4.45604 2.60468C4.7139 2.84529 4.95909 3.09433 5.21695 3.36026C5.348 3.49534 5.48327 3.63042 5.61854 3.76971L6.77259 4.92209C7.22068 5.36953 7.22068 5.7832 6.77259 6.23064C6.65 6.35305 6.53164 6.47546 6.40905 6.59366C6.05395 6.95667 5.71577 7.29437 5.348 7.62361C5.33954 7.63206 5.33109 7.63628 5.32686 7.64472C4.96332 8.00774 5.03095 8.36231 5.10704 8.60292C5.11127 8.61558 5.1155 8.62824 5.11972 8.64091C5.41986 9.36694 5.84259 10.0508 6.48514 10.8654L6.48936 10.8697C7.65609 12.3049 8.88623 13.4235 10.2432 14.2803C10.4165 14.3901 10.5941 14.4787 10.7631 14.5632C10.9153 14.6391 11.0591 14.7109 11.1816 14.7869C11.1986 14.7953 11.2155 14.808 11.2324 14.8164C11.3761 14.8882 11.5114 14.922 11.6509 14.922C12.0017 14.922 12.2216 14.7025 12.2934 14.6307L13.7392 13.1871C13.8829 13.0436 14.1112 12.8705 14.3775 12.8705C14.6396 12.8705 14.8552 13.0351 14.9862 13.1786C14.9904 13.1829 14.9904 13.1829 14.9947 13.1871L17.3239 15.5129C17.7593 15.9435 17.7593 16.3867 17.3281 16.8341Z"/>
<path d="M10.8096 4.75747C11.9171 4.9432 12.9232 5.46662 13.7264 6.26863C14.5296 7.07065 15.0496 8.07528 15.2398 9.18122C15.2863 9.45981 15.5272 9.65399 15.802 9.65399C15.8358 9.65399 15.8654 9.64977 15.8992 9.64554C16.2121 9.59489 16.4192 9.29941 16.3685 8.98705C16.1402 7.64895 15.5061 6.42904 14.5381 5.4624C13.57 4.49576 12.3483 3.86258 11.0083 3.63464C10.6955 3.58399 10.4038 3.79083 10.3488 4.09897C10.2939 4.40711 10.4968 4.70681 10.8096 4.75747Z"/>
<path d="M19.9914 8.82242C19.6152 6.61899 18.5752 4.61395 16.9773 3.01836C15.3794 1.42277 13.3715 0.384369 11.1648 0.00868773C10.8562 -0.0461871 10.5645 0.16487 10.5096 0.473013C10.4589 0.785377 10.666 1.07664 10.9788 1.13151C12.9487 1.46498 14.7453 2.39785 16.1741 3.82038C17.603 5.24712 18.533 7.0411 18.8669 9.00815C18.9134 9.28675 19.1544 9.48092 19.4292 9.48092C19.463 9.48092 19.4926 9.4767 19.5264 9.47248C19.835 9.42605 20.0463 9.13057 19.9914 8.82242Z"/>
</symbol><symbol id="pinterest" viewBox="0 0 30 30">
<path d="M14.9999 0C23.2847 0 30 6.71625 30 15.0001C30 23.2848 23.2847 30 14.9999 30C6.71522 30 0 23.2847 0 15.0001C0 6.71625 6.71532 0 14.9999 0Z"/>
<path d="M15 5C9.4823 5 5 9.4823 5 15C5 20.5177 9.4823 25 15 25C20.5177 25 25 20.5177 25 15C25 9.4823 20.5177 5 15 5ZM15 5.86957C20.0477 5.86957 24.1304 9.95225 24.1304 15C24.1304 20.0477 20.0477 24.1304 15 24.1304C14.0767 24.1304 13.186 23.9922 12.3463 23.7381C12.7203 23.1128 13.2032 22.219 13.395 21.481C13.509 21.0434 13.9776 19.2587 13.9776 19.2587C14.2821 19.84 15.1719 20.332 16.1192 20.332C18.9383 20.332 20.9706 17.7394 20.9706 14.5177C20.9706 11.4289 18.4502 9.11855 15.2072 9.11855C11.1725 9.11855 9.03108 11.8264 9.03108 14.775C9.03108 16.1462 9.7604 17.8531 10.9282 18.3967C11.105 18.4791 11.2 18.4434 11.2407 18.2719C11.2719 18.1418 11.4297 17.5073 11.5005 17.2121C11.5232 17.1179 11.5122 17.0365 11.436 16.9438C11.0495 16.475 10.7396 15.6138 10.7396 14.8106C10.7396 12.7487 12.3006 10.7532 14.9601 10.7532C17.2564 10.7532 18.8646 12.3186 18.8646 14.5567C18.8646 17.0853 17.5879 18.8375 15.9265 18.8375C15.0089 18.8375 14.3219 18.0784 14.5423 17.1476C14.8065 16.0366 15.3167 14.8378 15.3167 14.0353C15.3167 13.3177 14.9316 12.7191 14.1338 12.7191C13.1958 12.7191 12.4423 13.6889 12.4423 14.989C12.4423 15.8162 12.7225 16.3765 12.7225 16.3765C12.7225 16.3765 11.7959 20.2941 11.6262 21.0233C11.4561 21.7519 11.5017 22.7332 11.5718 23.4638C8.22658 22.1098 5.86957 18.8345 5.86957 15C5.86957 9.95225 9.95225 5.86957 15 5.86957Z" fill="#041827"/>
</symbol><symbol id="price-mobile" viewBox="0 0 30 30"><g fill="none">
<path d="M9.48652 7.35921C9.37754 7.2502 9.22637 7.1875 9.07227 7.1875C8.91816 7.1875 8.76699 7.2502 8.65801 7.35921C8.54908 7.46821 8.48633 7.6194 8.48633 7.77353C8.48633 7.92765 8.54902 8.07885 8.65801 8.18785C8.76699 8.29691 8.91816 8.35955 9.07227 8.35955C9.22637 8.35955 9.37754 8.29685 9.48652 8.18785C9.59545 8.07885 9.6582 7.92765 9.6582 7.77353C9.6582 7.6194 9.59551 7.46821 9.48652 7.35921Z" fill="#00B2FF"/>
<path d="M29.8286 2.45028L29.1041 1.72484L29.8284 1.00045C30.0572 0.771606 30.0572 0.400534 29.8284 0.171632C29.5995 -0.0572108 29.2286 -0.0572108 28.9997 0.171632L28.2758 0.89555L27.562 0.180716C27.4521 0.0707773 27.3032 0.00889294 27.1478 0.00883434L17.2305 0.0033257C17.23 0.0033257 17.2294 0.0033257 17.2289 0.0033257C16.4458 0.0033257 15.7096 0.308294 15.1558 0.862147L10.207 5.81172C9.97816 6.04056 9.97816 6.41164 10.207 6.64054C10.4358 6.86938 10.8067 6.86938 11.0357 6.64054L15.9845 1.69096C16.317 1.35845 16.7588 1.17544 17.2289 1.17544C17.2293 1.17544 17.2296 1.17544 17.2299 1.17544L26.9044 1.18083L27.4473 1.72443L25.2732 3.89882C24.3513 3.34654 23.1359 3.46697 22.3423 4.26057C21.889 4.71404 21.6393 5.31688 21.6393 5.95811C21.6393 6.59934 21.889 7.20219 22.3423 7.65565C22.8103 8.12365 23.425 8.35765 24.0397 8.35765C24.6543 8.35765 25.269 8.12365 25.737 7.65565C26.5293 6.86317 26.6505 5.64998 26.1012 4.72839L28.2755 2.55371L28.8281 3.10698L28.8227 12.7698C28.8224 13.2395 28.6393 13.6812 28.3072 14.0134L14.0089 28.3137C13.6765 28.6462 13.2346 28.8292 12.7645 28.8292C12.2945 28.8292 11.8525 28.6462 11.5201 28.3137L1.68738 18.4794C1.35492 18.147 1.17188 17.7049 1.17188 17.2348C1.17188 16.7647 1.35492 16.3227 1.68738 15.9902L8.00344 9.67322C8.23225 9.44438 8.23225 9.07331 8.00344 8.84441C7.77457 8.61556 7.40367 8.61556 7.17475 8.84441L0.858691 15.1614C0.30498 15.7152 0 16.4516 0 17.2348C0 18.0181 0.30498 18.7545 0.858691 19.3083L10.6914 29.1425C11.263 29.7141 12.0137 30 12.7645 30C13.5154 30 14.2661 29.7141 14.8376 29.1425L29.1358 14.8421C29.6891 14.2888 29.994 13.5529 29.9945 12.7703L30 2.86471C30.0001 2.7093 29.9384 2.56022 29.8286 2.45028ZM24.9083 6.82678C24.6762 7.05884 24.3677 7.18666 24.0397 7.18666C23.7115 7.18666 23.403 7.05884 23.171 6.82678C22.692 6.34776 22.692 5.56829 23.171 5.08927C23.4105 4.8497 23.725 4.72998 24.0397 4.72998C24.1581 4.72998 24.2766 4.74703 24.3911 4.78102L23.7148 5.45741C23.486 5.68625 23.486 6.05732 23.7148 6.28623C23.8292 6.40068 23.9791 6.45787 24.1291 6.45787C24.279 6.45787 24.429 6.40068 24.5434 6.28623L25.2178 5.61171C25.3396 6.0289 25.2366 6.49843 24.9083 6.82678Z" fill="#00B2FF"/>
<path d="M25.0324 11.7988L18.2039 4.96926C17.2994 4.06455 15.8274 4.06467 14.923 4.96926L4.11707 15.7769C3.67885 16.2151 3.4375 16.7978 3.4375 17.4176C3.4375 18.0373 3.67879 18.6201 4.11701 19.0583L10.9455 25.8877C11.3837 26.326 11.9663 26.5674 12.586 26.5674C13.2057 26.5674 13.7883 26.3261 14.2264 25.8878L25.0324 15.0802C25.4706 14.6419 25.7119 14.0593 25.7119 13.4395C25.7119 12.8197 25.4706 12.237 25.0324 11.7988ZM24.2037 14.2514L13.3978 25.0591C13.181 25.2759 12.8927 25.3954 12.586 25.3954C12.2794 25.3954 11.9911 25.2759 11.7743 25.059L4.9457 18.2296C4.72885 18.0127 4.60943 17.7243 4.60943 17.4176C4.60938 17.1109 4.72885 16.8225 4.9457 16.6057L15.7517 5.79807C15.9755 5.57421 16.2695 5.46228 16.5635 5.46228C16.8575 5.46228 17.1515 5.57427 17.3753 5.79807L24.2037 12.6276C24.4206 12.8444 24.54 13.1328 24.54 13.4395C24.54 13.7462 24.4206 14.0346 24.2037 14.2514Z" fill="#00B2FF"/>
<path d="M19.1097 11.7231C19.3385 11.4943 19.3385 11.1232 19.1097 10.8943C18.8808 10.6654 18.5099 10.6654 18.281 10.8943L17.9436 11.2317C17.0428 10.6752 15.8868 10.7499 15.1561 11.4806C14.7301 11.9067 14.5121 12.4853 14.5423 13.1099C14.5716 13.713 14.8313 14.2888 15.2735 14.7311C15.2735 14.7311 15.2736 14.7311 15.2736 14.7312C15.7448 15.2028 15.7975 15.9172 15.3908 16.3239C14.984 16.7307 14.2695 16.678 13.7981 16.2066C13.3266 15.735 13.274 15.0204 13.6807 14.6136C13.9095 14.3848 13.9095 14.0137 13.6807 13.7848C13.4518 13.556 13.0809 13.556 12.852 13.7848C12.1214 14.5156 12.0467 15.6717 12.6032 16.5728L12.2029 16.9731C11.974 17.2019 11.974 17.573 12.2029 17.8019C12.3176 17.9165 12.4675 17.9737 12.6175 17.9737C12.7675 17.9737 12.9173 17.9164 13.0318 17.802L13.4323 17.4014C13.826 17.6445 14.2681 17.7677 14.7024 17.7677C15.2619 17.7677 15.8082 17.5641 16.2196 17.1528C17.083 16.2891 17.0305 14.8314 16.1027 13.9028C16.1025 13.9027 16.1024 13.9025 16.1022 13.9023C15.8663 13.6664 15.728 13.3649 15.7129 13.0531C15.6989 12.7629 15.7954 12.4988 15.9848 12.3094C16.3915 11.9027 17.1059 11.9553 17.5774 12.4266C17.5774 12.4267 17.5774 12.4267 17.5775 12.4268C17.5775 12.4269 17.5776 12.4269 17.5776 12.4269C18.0489 12.8984 18.1015 13.6129 17.6948 14.0197C17.466 14.2485 17.466 14.6196 17.6948 14.8485C17.8092 14.9629 17.9592 15.0201 18.1091 15.0201C18.259 15.0201 18.409 14.9629 18.5234 14.8485C19.2541 14.1177 19.3288 12.9616 18.7723 12.0605L19.1097 11.7231Z" fill="#00B2FF"/>
<path d="M13.1797 21.4383L10.1702 18.4284C9.94141 18.1997 9.57051 18.1996 9.34153 18.4284C9.11272 18.6572 9.11272 19.0283 9.34153 19.2572L12.351 22.2671C12.4655 22.3815 12.6154 22.4388 12.7653 22.4388C12.9153 22.4388 13.0652 22.3815 13.1797 22.2671C13.4085 22.0383 13.4085 21.6672 13.1797 21.4383Z" fill="#00B2FF"/>
<path d="M8.55873 16.8221C8.4498 16.7132 8.29916 16.6504 8.14453 16.6504C7.99043 16.6504 7.83984 16.7131 7.73027 16.8221C7.62129 16.9311 7.55859 17.0823 7.55859 17.237C7.55859 17.3911 7.62123 17.5423 7.73027 17.6513C7.83926 17.7603 7.99043 17.823 8.14453 17.823C8.29922 17.823 8.4498 17.7603 8.55873 17.6513C8.6683 17.5417 8.731 17.3911 8.731 17.237C8.731 17.0823 8.6683 16.9317 8.55873 16.8221Z" fill="#00B2FF"/>
</g></symbol><symbol id="price" viewBox="0 0 35 35">
<path d="M11.0709 8.58472C10.9437 8.45756 10.7674 8.3844 10.5876 8.3844C10.4078 8.3844 10.2314 8.45756 10.1043 8.58472C9.9772 8.71189 9.90399 8.88828 9.90399 9.0681C9.90399 9.24791 9.97714 9.4243 10.1043 9.55147C10.2314 9.67871 10.4078 9.75179 10.5876 9.75179C10.7674 9.75179 10.9437 9.67864 11.0709 9.55147C11.198 9.4243 11.2712 9.24791 11.2712 9.0681C11.2712 8.88828 11.198 8.71189 11.0709 8.58472Z"/>
<path d="M34.8 2.85866L33.9548 2.01231L34.7998 1.16719C35.0667 0.900207 35.0667 0.46729 34.7998 0.200238C34.5328 -0.0667459 34.1 -0.0667459 33.833 0.200238L32.9885 1.04481L32.1556 0.210835C32.0275 0.0825735 31.8537 0.0103751 31.6724 0.0103067L20.1023 0.00387998C20.1016 0.00387998 20.101 0.00387998 20.1004 0.00387998C19.1868 0.00387998 18.3278 0.359676 17.6818 1.00584L11.9081 6.78034C11.6412 7.04732 11.6412 7.48024 11.9081 7.74729C12.1751 8.01428 12.6079 8.01428 12.8749 7.74729L18.6486 1.97279C19.0364 1.58486 19.5519 1.37134 20.1004 1.37134C20.1008 1.37134 20.1012 1.37134 20.1016 1.37134L31.3884 1.37763L32.0219 2.01183L29.4854 4.54862C28.4099 3.9043 26.9919 4.0448 26.066 4.97066C25.5371 5.49971 25.2459 6.20303 25.2459 6.95113C25.2459 7.69923 25.5371 8.40255 26.066 8.93159C26.612 9.47759 27.3291 9.75059 28.0463 9.75059C28.7634 9.75059 29.4805 9.47759 30.0264 8.93159C30.9508 8.00703 31.0922 6.59164 30.4514 5.51646L32.9881 2.97933L33.6327 3.62481L33.6265 14.8981C33.6261 15.4461 33.4126 15.9614 33.025 16.349L16.3438 33.0327C15.956 33.4205 15.4403 33.6341 14.892 33.6341C14.3436 33.6341 13.8279 33.4205 13.4401 33.0327L1.96861 21.5593C1.58074 21.1715 1.36719 20.6558 1.36719 20.1073C1.36719 19.5588 1.58074 19.0431 1.96861 18.6553L9.33734 11.2854C9.60429 11.0184 9.60429 10.5855 9.33734 10.3185C9.07033 10.0515 8.63762 10.0515 8.37054 10.3185L1.00181 17.6883C0.355811 18.3344 0 19.1935 0 20.1073C0 21.0211 0.355811 21.8802 1.00181 22.5263L12.4733 33.9996C13.1402 34.6665 14.016 35 14.892 35C15.7679 35 16.6437 34.6665 17.3106 33.9996L33.9918 17.3158C34.6373 16.6702 34.993 15.8118 34.9936 14.8987L35 3.34217C35.0001 3.16085 34.9282 2.98692 34.8 2.85866ZM29.0596 7.96457C28.7889 8.23532 28.429 8.38443 28.0463 8.38443C27.6634 8.38443 27.3036 8.23532 27.0329 7.96457C26.474 7.40572 26.474 6.49633 27.0329 5.93748C27.3123 5.65798 27.6792 5.51831 28.0463 5.51831C28.1845 5.51831 28.3227 5.5382 28.4562 5.57786L27.6672 6.36698C27.4003 6.63396 27.4003 7.06688 27.6672 7.33393C27.8007 7.46746 27.9757 7.53419 28.1506 7.53419C28.3255 7.53419 28.5005 7.46746 28.634 7.33393L29.4208 6.547C29.5629 7.03372 29.4427 7.5815 29.0596 7.96457Z"/>
<path d="M29.2003 13.7645L21.2338 5.79669C20.1785 4.7412 18.4612 4.74134 17.406 5.79669L4.79912 18.4056C4.28786 18.9168 4.00629 19.5966 4.00629 20.3197C4.00629 21.0428 4.28779 21.7227 4.79905 22.2339L12.7657 30.2016C13.2769 30.7129 13.9565 30.9946 14.6795 30.9946C15.4025 30.9946 16.0822 30.713 16.5934 30.2017L29.2003 17.5928C29.7116 17.0815 29.9931 16.4017 29.9931 15.6786C29.9931 14.9556 29.7116 14.2758 29.2003 13.7645ZM28.2335 16.6258L15.6266 29.2349C15.3737 29.4878 15.0373 29.6272 14.6796 29.6272C14.3219 29.6272 13.9855 29.4878 13.7325 29.2348L5.76586 21.267C5.51286 21.014 5.37354 20.6776 5.37354 20.3198C5.37347 19.9619 5.51286 19.6255 5.76586 19.3725L18.3728 6.76365C18.634 6.50247 18.9769 6.37189 19.3199 6.37189C19.6629 6.37189 20.0059 6.50254 20.267 6.76365L28.2335 14.7314C28.4865 14.9844 28.6258 15.3208 28.6258 15.6786C28.6258 16.0364 28.4865 16.3729 28.2335 16.6258Z"/>
<path d="M22.2904 13.677C22.5574 13.41 22.5574 12.9771 22.2904 12.71C22.0234 12.443 21.5907 12.443 21.3236 12.71L20.93 13.1037C19.879 12.4544 18.5304 12.5415 17.6779 13.394C17.1808 13.8912 16.9265 14.5662 16.9618 15.2949C16.9959 15.9985 17.2989 16.6702 17.8148 17.1862C17.8149 17.1863 17.8149 17.1863 17.8149 17.1864C18.3648 17.7365 18.4261 18.5701 17.9517 19.0446C17.4771 19.5191 16.6435 19.4577 16.0935 18.9077C15.5435 18.3575 15.4821 17.5238 15.9566 17.0492C16.2235 16.7822 16.2235 16.3493 15.9566 16.0823C15.6896 15.8153 15.2569 15.8153 14.9898 16.0823C14.1373 16.9348 14.0503 18.2836 14.6995 19.3349L14.2324 19.8019C13.9655 20.0689 13.9655 20.5018 14.2324 20.7689C14.3663 20.9025 14.5412 20.9693 14.7161 20.9693C14.8911 20.9693 15.066 20.9025 15.1995 20.769L15.6668 20.3016C16.1261 20.5853 16.6419 20.729 17.1486 20.729C17.8013 20.7289 18.4387 20.4915 18.9186 20.0115C19.9259 19.004 19.8647 17.3033 18.7822 16.22C18.782 16.2198 18.7819 16.2196 18.7817 16.2194C18.5065 15.9441 18.3451 15.5923 18.3275 15.2287C18.3112 14.8901 18.4238 14.582 18.6448 14.361C19.1192 13.8864 19.9526 13.9478 20.5027 14.4977C20.5028 14.4978 20.5028 14.4979 20.5028 14.4979C20.5029 14.498 20.503 14.498 20.503 14.498C21.0529 15.0482 21.1142 15.8817 20.6397 16.3563C20.3727 16.6233 20.3727 17.0562 20.6397 17.3232C20.7732 17.4568 20.9481 17.5235 21.1231 17.5235C21.298 17.5235 21.4729 17.4568 21.6064 17.3232C22.4589 16.4706 22.546 15.1218 21.8968 14.0706L22.2904 13.677Z"/>
<path d="M15.3717 25.0115L11.8607 21.4999C11.5937 21.2332 11.161 21.233 10.8939 21.4999C10.6269 21.7669 10.6269 22.1998 10.8939 22.4669L14.4049 25.9785C14.5385 26.112 14.7134 26.1788 14.8883 26.1788C15.0632 26.1788 15.2382 26.112 15.3717 25.9785C15.6386 25.7115 15.6386 25.2786 15.3717 25.0115Z"/>
<path d="M9.98793 19.627C9.86085 19.4999 9.6851 19.4266 9.5047 19.4266C9.32491 19.4266 9.14923 19.4998 9.0214 19.627C8.89425 19.7541 8.82111 19.9305 8.82111 20.111C8.82111 20.2908 8.89418 20.4672 9.0214 20.5944C9.14855 20.7216 9.32491 20.7947 9.5047 20.7947C9.68517 20.7947 9.86085 20.7216 9.98793 20.5944C10.1158 20.4665 10.1889 20.2908 10.1889 20.111C10.1889 19.9305 10.1158 19.7548 9.98793 19.627Z"/>
</symbol><symbol id="stopwatch-mobile" viewBox="0 0 30 30"><g fill="none">
<path d="M3.29827 9.99619L1.7606 8.73459C0.925222 8.04955 0.925222 6.93443 1.7606 6.24893C2.59598 5.56366 3.95536 5.56366 4.79074 6.24893L6.43248 7.59567C8.14509 6.6172 10.0974 5.93994 12.1429 5.61493V3.86719H10.7143C10.3198 3.86719 10 3.60489 10 3.28125V1.75781C10 0.788498 10.9612 0 12.1429 0H17.8571C19.0388 0 20 0.788498 20 1.75781V3.28125C20 3.60489 19.6802 3.86719 19.2857 3.86719H17.8571V5.61493C19.9023 5.93971 21.8549 6.6172 23.5675 7.59567L25.2093 6.24893C26.0444 5.56366 27.4037 5.56366 28.2394 6.24893C29.0748 6.9342 29.0748 8.04932 28.2394 8.73459L26.7017 9.99619C28.8331 12.174 30 14.8867 30 17.6953C30 24.4801 23.2709 30 15 30C6.72907 30 -1.90735e-06 24.4801 -1.90735e-06 17.6953C-1.90735e-06 14.8867 1.16685 12.174 3.29827 9.99619ZM3.78069 7.07748C3.50195 6.84906 3.04911 6.84929 2.77065 7.07748C2.49247 7.30591 2.49247 7.67761 2.77065 7.90604L4.24665 9.11659C4.57924 8.83644 4.92801 8.56934 5.29074 8.31642L3.78069 7.07748ZM18.5714 1.75781C18.5714 1.43463 18.2511 1.17188 17.8571 1.17188H12.1429C11.7489 1.17188 11.4286 1.43463 11.4286 1.75781V2.69531H18.5714V1.75781ZM13.5714 3.86719V5.44601C14.5181 5.37323 15.4816 5.37323 16.4286 5.44601V3.86719H13.5714ZM27.2294 7.07748C26.9509 6.84929 26.4978 6.84906 26.2193 7.07748L24.7093 8.31642C25.072 8.56934 25.4208 8.83644 25.7533 9.11659L27.2294 7.90604C27.5075 7.67761 27.5075 7.30591 27.2294 7.07748ZM15 28.8281C22.4833 28.8281 28.5714 23.8339 28.5714 17.6953C28.5714 14.9874 27.373 12.3784 25.1973 10.3484C24.5979 9.78928 23.9291 9.27841 23.2095 8.82935C21.4062 7.7037 19.2718 6.96281 17.0368 6.68655C16.368 6.60439 15.6828 6.5625 15 6.5625C14.3172 6.5625 13.632 6.60439 12.9634 6.68655C10.7282 6.96281 8.59375 7.7037 6.79018 8.82935C6.07087 9.27841 5.40206 9.78928 4.80273 10.3484C2.62695 12.3784 1.42857 14.9874 1.42857 17.6953C1.42857 23.8339 7.51674 28.8281 15 28.8281Z" fill="#F2F5F7"/>
<path d="M15.0002 19.4531C13.8186 19.4531 12.8574 18.6646 12.8574 17.6953C12.8574 16.9315 13.4545 16.2801 14.2859 16.0382V11.8359C14.2859 11.5123 14.6057 11.25 15.0002 11.25C15.3947 11.25 15.7145 11.5123 15.7145 11.8359V16.0382C16.546 16.2801 17.1431 16.9315 17.1431 17.6953C17.1431 18.6646 16.1819 19.4531 15.0002 19.4531ZM15.0002 17.1094C14.6062 17.1094 14.2859 17.3721 14.2859 17.6953C14.2859 18.0185 14.6062 18.2812 15.0002 18.2812C15.3942 18.2812 15.7145 18.0185 15.7145 17.6953C15.7145 17.3721 15.3942 17.1094 15.0002 17.1094Z" fill="#F2F5F7"/>
<path d="M7.39049 11.5136C7.40165 11.5028 7.41281 11.4921 7.42536 11.482C7.43876 11.4708 7.45299 11.4607 7.46722 11.4506C8.72614 10.4289 10.2814 9.67292 11.9692 9.26413C12.3478 9.17258 12.7448 9.34973 12.8564 9.6601C12.9681 9.97046 12.7521 10.2964 12.3737 10.3879C11.1232 10.691 9.95661 11.2147 8.96219 11.9139L9.44406 12.3092C9.7228 12.5381 9.7228 12.9091 9.44406 13.138C9.30455 13.2524 9.12179 13.3096 8.93876 13.3096C8.756 13.3096 8.57324 13.2524 8.43373 13.138L7.95075 12.7418C6.65834 13.9745 5.89077 15.492 5.74121 17.1093H6.42815C6.82269 17.1093 7.14244 17.3718 7.14244 17.6952C7.14244 18.0189 6.82269 18.2812 6.42815 18.2812H5.74121C5.89077 19.8987 6.65834 21.4159 7.95075 22.6487L8.43373 22.2525C8.71275 22.0238 9.16504 22.0238 9.44406 22.2525C9.72308 22.4814 9.72308 22.8524 9.44406 23.0813L8.96108 23.4775C10.4639 24.5376 12.3138 25.1673 14.2853 25.2902V24.7265C14.2853 24.4028 14.6051 24.1405 14.9996 24.1405C15.3941 24.1405 15.7139 24.4028 15.7139 24.7265V25.29C17.6854 25.1673 19.5353 24.5376 21.0381 23.4775L20.5551 23.0813C20.2761 22.8524 20.2761 22.4814 20.5551 22.2525C20.8341 22.0238 21.2864 22.0238 21.5654 22.2525L22.0484 22.6487C23.3408 21.4159 24.1084 19.8984 24.258 18.2812H23.571C23.1765 18.2812 22.8567 18.0189 22.8567 17.6952C22.8567 17.3716 23.1765 17.1093 23.571 17.1093H24.258C24.1084 15.492 23.3408 13.9745 22.0484 12.7418L21.5654 13.138C21.4259 13.2524 21.2432 13.3096 21.0604 13.3096C20.8774 13.3096 20.6946 13.2524 20.5551 13.138C20.2764 12.9091 20.2764 12.5381 20.5551 12.3092L21.037 11.9139C20.0426 11.2144 18.876 10.691 17.6254 10.3879C17.2471 10.2964 17.0311 9.97046 17.1427 9.6601C17.2543 9.34973 17.6511 9.17281 18.03 9.26413C19.7175 9.67269 21.2722 10.4285 22.5308 11.4497C22.5456 11.46 22.5601 11.4706 22.5738 11.4818C22.5861 11.4918 22.597 11.5024 22.6081 11.5129C24.6112 13.1714 25.7139 15.365 25.7139 17.6952C25.7139 20.0252 24.6112 22.2186 22.6087 23.8769C22.5975 23.8876 22.5864 23.8984 22.5738 23.9085C22.5615 23.9187 22.5487 23.9277 22.5359 23.9368C20.5141 25.5797 17.8403 26.4843 14.9996 26.4843C12.1592 26.4843 9.48535 25.58 7.46387 23.9373C7.45075 23.9279 7.43764 23.9187 7.42536 23.9085C7.41309 23.8986 7.4022 23.8879 7.39104 23.8776C5.38798 22.2191 4.2853 20.0255 4.2853 17.6952C4.2853 15.3652 5.38798 13.1718 7.39049 11.5136Z" fill="#F2F5F7"/>
<path d="M14.9996 10.0781C14.6053 10.0781 14.2853 9.8156 14.2853 9.49219C14.2853 9.16878 14.6053 8.90625 14.9996 8.90625C15.3938 8.90625 15.7139 9.16878 15.7139 9.49219C15.7139 9.8156 15.3938 10.0781 14.9996 10.0781Z" fill="#F2F5F7"/>
</g></symbol><symbol id="stopwatch" viewBox="0 0 35 35">
<path d="M3.84798 11.6622L2.05404 10.1904C1.07943 9.39114 1.07943 8.09017 2.05404 7.29042C3.02864 6.49094 4.61458 6.49094 5.58919 7.29042L7.50456 8.86162C9.5026 7.72007 11.7803 6.92993 14.1667 6.55075V4.51172H12.5C12.0397 4.51172 11.6667 4.2057 11.6667 3.82812V2.05078C11.6667 0.919914 12.7881 0 14.1667 0H20.8333C22.2119 0 23.3333 0.919914 23.3333 2.05078V3.82812C23.3333 4.2057 22.9603 4.51172 22.5 4.51172H20.8333V6.55075C23.2194 6.92966 25.4974 7.72007 27.4954 8.86162L29.4108 7.29042C30.3851 6.49094 31.971 6.49094 32.946 7.29042C33.9206 8.0899 33.9206 9.39087 32.946 10.1904L31.152 11.6622C33.6387 14.203 35 17.3678 35 20.6445C35 28.5601 27.1494 35 17.5 35C7.85059 35 0 28.5601 0 20.6445C0 17.3678 1.36133 14.203 3.84798 11.6622ZM4.41081 8.25706C4.08561 7.99057 3.55729 7.99084 3.23242 8.25706C2.90788 8.52356 2.90788 8.95721 3.23242 9.22371L4.95443 10.636C5.34245 10.3092 5.74935 9.99756 6.17253 9.70249L4.41081 8.25706ZM21.6667 2.05078C21.6667 1.67374 21.293 1.36719 20.8333 1.36719H14.1667C13.707 1.36719 13.3333 1.67374 13.3333 2.05078V3.14453H21.6667V2.05078ZM15.8333 4.51172V6.35368C16.9378 6.26877 18.0618 6.26877 19.1667 6.35368V4.51172H15.8333ZM31.7676 8.25706C31.4427 7.99084 30.9141 7.99057 30.5892 8.25706L28.8275 9.70249C29.2507 9.99756 29.6576 10.3092 30.0456 10.636L31.7676 9.22371C32.0921 8.95721 32.0921 8.52356 31.7676 8.25706ZM17.5 33.6328C26.2305 33.6328 33.3333 27.8062 33.3333 20.6445C33.3333 17.4853 31.9352 14.4415 29.3968 12.0732C28.6976 11.4208 27.9173 10.8248 27.0778 10.3009C24.974 8.98766 22.4837 8.12328 19.8763 7.80098C19.096 7.70512 18.2965 7.65625 17.5 7.65625C16.7034 7.65625 15.904 7.70512 15.124 7.80098C12.5163 8.12328 10.026 8.98766 7.92188 10.3009C7.08268 10.8248 6.30241 11.4208 5.60319 12.0732C3.06478 14.4415 1.66666 17.4853 1.66666 20.6445C1.66666 27.8062 8.76953 33.6328 17.5 33.6328Z"/>
<path d="M17.5 22.6953C16.1214 22.6953 15 21.7754 15 20.6445C15 19.7535 15.6966 18.9935 16.6667 18.7112V13.8086C16.6667 13.431 17.0397 13.125 17.5 13.125C17.9603 13.125 18.3334 13.431 18.3334 13.8086V18.7112C19.3034 18.9935 20 19.7535 20 20.6445C20 21.7754 18.8786 22.6953 17.5 22.6953ZM17.5 19.9609C17.0404 19.9609 16.6667 20.2675 16.6667 20.6445C16.6667 21.0216 17.0404 21.3281 17.5 21.3281C17.9597 21.3281 18.3334 21.0216 18.3334 20.6445C18.3334 20.2675 17.9597 19.9609 17.5 19.9609Z"/>
<path d="M8.62274 13.4326C8.63576 13.42 8.64878 13.4075 8.66343 13.3957C8.67905 13.3826 8.69565 13.3709 8.71225 13.3591C10.181 12.1671 11.9955 11.2851 13.9645 10.8082C14.4063 10.7014 14.8695 10.9081 14.9997 11.2702C15.1299 11.6323 14.8779 12.0125 14.4365 12.1193C12.9776 12.4729 11.6166 13.0838 10.4564 13.8996L11.0186 14.3608C11.3438 14.6278 11.3438 15.0607 11.0186 15.3277C10.8558 15.4612 10.6426 15.528 10.4291 15.528C10.2158 15.528 10.0026 15.4612 9.83986 15.3277L9.27638 14.8655C7.76857 16.3037 6.87306 18.0741 6.69858 19.9609H7.50002C7.9603 19.9609 8.33335 20.2672 8.33335 20.6445C8.33335 21.0221 7.9603 21.3281 7.50002 21.3281H6.69858C6.87306 23.2152 7.76857 24.9853 9.27638 26.4235L9.83986 25.9613C10.1654 25.6945 10.693 25.6945 11.0186 25.9613C11.3441 26.2283 11.3441 26.6612 11.0186 26.9282L10.4551 27.3904C12.2083 28.6273 14.3666 29.3619 16.6667 29.5053V28.8476C16.6667 28.47 17.0397 28.164 17.5 28.164C17.9603 28.164 18.3333 28.47 18.3333 28.8476V29.505C20.6335 29.3619 22.7917 28.6273 24.5449 27.3904L23.9815 26.9282C23.6559 26.6612 23.6559 26.2283 23.9815 25.9613C24.307 25.6945 24.8347 25.6945 25.1602 25.9613L25.7236 26.4235C27.2315 24.9853 28.127 23.2149 28.3014 21.3281H27.5C27.0397 21.3281 26.6667 21.0221 26.6667 20.6445C26.6667 20.2669 27.0397 19.9609 27.5 19.9609H28.3014C28.127 18.0741 27.2315 16.3037 25.7236 14.8655L25.1602 15.3277C24.9974 15.4612 24.7842 15.528 24.571 15.528C24.3574 15.528 24.1442 15.4612 23.9815 15.3277C23.6563 15.0607 23.6563 14.6278 23.9815 14.3608L24.5436 13.8996C23.3835 13.0836 22.0225 12.4729 20.5635 12.1193C20.1221 12.0125 19.8701 11.6323 20.0003 11.2702C20.1305 10.9081 20.5934 10.7017 21.0355 10.8082C23.0042 11.2849 24.818 12.1666 26.2865 13.3581C26.3037 13.3701 26.3207 13.3824 26.3366 13.3955C26.3509 13.4072 26.3636 13.4195 26.3766 13.4318C28.7136 15.3667 30 17.9259 30 20.6445C30 23.3628 28.7136 25.9218 26.3773 27.8564C26.3643 27.869 26.3513 27.8815 26.3366 27.8933C26.3223 27.9053 26.3073 27.9157 26.2923 27.9264C23.9336 29.8431 20.8141 30.8984 17.5 30.8984C14.1862 30.8984 11.0667 29.8434 8.70835 27.9269C8.69305 27.916 8.67775 27.9053 8.66343 27.8933C8.6491 27.8818 8.63641 27.8692 8.62339 27.8572C6.28647 25.9223 5.00002 23.3631 5.00002 20.6445C5.00002 17.9261 6.28647 15.3672 8.62274 13.4326Z"/>
<path d="M17.5 11.7578C17.04 11.7578 16.6667 11.4515 16.6667 11.0742C16.6667 10.6969 17.04 10.3906 17.5 10.3906C17.96 10.3906 18.3333 10.6969 18.3333 11.0742C18.3333 11.4515 17.96 11.7578 17.5 11.7578Z"/>
</symbol><symbol id="vector-mobile" viewBox="0 0 5 6"><g fill="none">
<path d="M1.31738 5.53979L3.85707 3.00011L1.31738 0.46043" stroke="white" stroke-linejoin="round"/>
</g></symbol><symbol id="vector" viewBox="0 0 5 10"><g fill="none">
<path d="M0.476196 8.80957L4.28572 5.00005L0.476196 1.19052" stroke="white" stroke-linejoin="round"/>
</g></symbol><symbol id="vk" viewBox="0 0 30 30">
<path d="M21.617 17.4544C20.3818 16.2726 20.2935 16.2726 21.3523 14.9091C22.6758 13.1819 24.4405 11.0002 22.8523 11.0002H19.9406C19.4112 11.0002 19.323 11.3638 19.1465 11.8184C18.4406 13.5455 17.0289 15.8181 16.4995 15.4545C15.9701 15.0909 16.2348 13.7273 16.2348 11.5457C16.323 11.2729 16.2348 11.0002 16.0583 10.8184C15.8819 10.6366 15.6172 10.4548 15.3525 10.4548C14.9113 10.3639 14.4702 10.273 14.029 10.273C12.3526 10.273 11.2056 11.0002 11.8232 11.0911C12.9702 11.2729 12.882 13.8182 12.6173 14.9091C12.1761 16.8181 10.4115 13.4546 9.61736 11.7275C9.52913 11.2729 9.1762 11.0002 8.73504 11.0002H6.44099C6.08806 11.0002 5.82336 11.0911 5.82336 11.3638C5.82336 11.8184 8.02917 16.2726 10.0585 18.5452C12.0879 20.7269 14.1172 20.5451 15.529 20.5451C15.7054 20.5451 15.8819 20.4542 15.9701 20.3633C16.0583 20.2724 16.1466 20.0906 16.1466 19.9088C16.1466 18.4543 16.676 17.7271 17.6465 18.727C18.7053 19.8179 18.97 20.5451 20.2935 20.5451H22.6758C23.2934 20.5451 23.4699 20.3633 23.4699 20.0906C23.5581 19.4543 22.4993 18.2725 21.617 17.4544ZM15.3525 0.000910576C23.5581 0.182718 30.0873 7.00048 29.9991 15.2727C29.9109 23.5449 23.117 30.09 14.9113 29.9991C6.61745 29.9082 0 23.2722 0 15C0.0882327 6.63687 6.97038 -0.0899929 15.3525 0.000910576Z"/>
</symbol></svg>